<svg id="BACKGROUND" xmlns="http://www.w3.org/2000/svg" viewBox="0 0 500 500"><defs><style>.cls-1{fill:#1a1a1a;}.cls-2{fill:#141414;}.cls-3{fill:#b6b6b6;}.cls-4{fill:#fefefe;}</style></defs><path class="cls-1" d="M347.64,242.61a16.7,16.7,0,0,0-2.81-3.72,47.26,47.26,0,0,0-7.88-6.37c-14.3-9.65-29.69-17.2-45.61-23.74-6.45-2.65-13.16-4.68-19.42-7.8-5.27-2.62-10.31-5.57-14.37-9.92a15.38,15.38,0,0,1-3.83-6.42c-.31-1.11,0-1.34,1.07-1.33q4.36.09,8.72,0a3.54,3.54,0,0,0,3.48-2.94,3.68,3.68,0,0,0-1.93-3.93,4.53,4.53,0,0,0-2.15-.4H253.8c-.5,0-1.06.12-1.27-.57-1.31-4.23-4.11-7.49-7-10.72a13.75,13.75,0,0,1-2.07-3c-2.52-5-.43-9.94,4.88-11.59a16.12,16.12,0,0,1,4.36-.68,9.5,9.5,0,0,1,9.31,7.72,12.31,12.31,0,0,1-.58,5.38,3.58,3.58,0,0,0,2.27,4.51,3.53,3.53,0,0,0,4.58-2.32c2-6.15,1.21-11.88-3.09-16.83-4.78-5.51-10.94-6.58-17.78-5.05-9,2-13.88,10-11.61,18.92a19.4,19.4,0,0,0,4.25,7.67,60.61,60.61,0,0,1,4.19,5.14c.25.38.77.78.52,1.24s-.79.17-1.21.17c-2.3,0-4.6,0-6.89,0s-4,1.55-4,3.71,1.59,3.55,4,3.58,4.51,0,6.76,0c3.3,0,3.41.16,1.9,3.24a23.35,23.35,0,0,1-7.06,8.05,68.94,68.94,0,0,1-18.79,9.92,280.71,280.71,0,0,0-46.87,21.82,117.48,117.48,0,0,0-15.3,10.32,19.21,19.21,0,0,0-5.38,6.27,5.69,5.69,0,0,0,3.57,8.21,10.1,10.1,0,0,0,2.44.39,4.89,4.89,0,0,1,1.19-.22.79.79,0,0,0-.29.21c.47,0,.94.08,1.42.08H340.36a18.13,18.13,0,0,0,2.85-.2A5.82,5.82,0,0,0,347.64,242.61Zm-9,8.69q-89.19,0-178.36,0l-.26,0ZM163,241.72c4.7-4.11,10-7.27,15.42-10.34a278.72,278.72,0,0,1,43.09-19.79,80.88,80.88,0,0,0,18.88-9.53,39.25,39.25,0,0,0,8.9-8.31c.31-.4.55-1,1.13-.2,5.15,6.81,12.23,11,19.75,14.66,6.34,3,13.08,5.1,19.57,7.79a262.15,262.15,0,0,1,39,19.84,58,58,0,0,1,9.3,7.07,3.54,3.54,0,0,1,1.07,1.32H160.56A11.61,11.61,0,0,1,163,241.72Z"/><path class="cls-1" d="M375.23,314.53c-.5-.25-.88.53-1.28.9a5.39,5.39,0,0,0-.73.91c-1.72,2.55-3.45,5.09-5.14,7.67a32.62,32.62,0,0,1-7.78,8.65c-.49.36-.92,1-1.7.55a1.9,1.9,0,0,1-.86-2,10.09,10.09,0,0,1,1.12-3.59c1.23-2.43,2.45-4.88,3.75-7.28a24,24,0,0,0,2.92-8.56c.3-2.32.17-4.58-1.83-6.17s-4.1-1-6.16-.14c-3.41,1.39-5.68,4.08-7.68,7-1.83,2.68-3.51,5.47-5.26,8.21-.29.1-.39,0-.29-.29a10,10,0,0,1,1.24-3.58A52,52,0,0,0,349.41,306c.59-2.68-.55-4-3.3-3.85-4,.16-6,2.11-6.38,6-.42,4.5-1.69,8.64-4.94,12a14.65,14.65,0,0,1-5,3.43c-.73.3-1,.25-.93-.64.13-1.08.2-2.16.26-3.24.25-4.71-.78-9.08-3.85-12.76a8.52,8.52,0,0,0-12.86-.77,50.47,50.47,0,0,0-5.08,5.74c-1.58,2.1-3.06,4.38-3.34,7-.43,4-2.68,6.93-4.84,10a16.28,16.28,0,0,1-3.24,3.54c-.78.61-1.77,1.46-2.65.93s-.61-1.82-.38-2.78A65.41,65.41,0,0,1,298,316c1-1.93,2.07-3.82,3-5.78,1.12-2.4,0-3.93-2.7-3.68a7.47,7.47,0,0,0-5.31,3.39,37.76,37.76,0,0,0-4.3,7.41,6.61,6.61,0,0,1-.76,1.35c-1.77,2.26-3.33,4.66-4.93,7a37,37,0,0,1-4.45,5.75,10.57,10.57,0,0,1-3.3,2.27c-.54.23-.77.13-.85-.48a5.9,5.9,0,0,1,.5-3.3q1.13-2.43,2.38-4.78c1.53-2.86,3.16-5.68,4.67-8.56a10.62,10.62,0,0,0,1.48-5.72,6.2,6.2,0,0,0-3.36-5.23c-1.89-1.05-3.55-.37-5.22.71a49.33,49.33,0,0,0-11.77,11.11,24.42,24.42,0,0,1-2.87,3.31c.27-2,.56-3.51,1.91-4.82A125,125,0,0,0,274,302.81c3.41-4.39,6.59-8.93,8.51-14.22a13.52,13.52,0,0,0,.93-6,5.13,5.13,0,0,0-4.67-4.94c-3.11-.42-5.57.94-7.73,3a37.61,37.61,0,0,0-7.17,9.85c-4.93,9.3-8.08,19.25-10.45,29.45a4.35,4.35,0,0,1-2.62,3.25,22.14,22.14,0,0,1-2.2.78c-1.06.36-1.61-.06-1.91-1.11a16.51,16.51,0,0,0-3-5.7c-1.94-2.51-4.13-4.79-6.26-7.14a18.36,18.36,0,0,1-2.93-4.12,3.45,3.45,0,0,1,1-4.51,3.65,3.65,0,0,1,4.46-.22c.74.52,1.45,1.1,2.17,1.64,1.45,1.09,2.81,1.35,3.39.64s.14-2.38-1.14-3.53a11.35,11.35,0,0,0-6.33-2.81c-5.42-.66-10.52,2.36-11.41,7.83a9.21,9.21,0,0,0,1.64,6.53,90.26,90.26,0,0,0,6.4,8.2,15.58,15.58,0,0,1,2.26,3.32c.58,1.25.45,1.52-.89,1.68-.86.11-1.73.15-2.59.23-2.55.24-5.11.47-7.42,1.72a5.7,5.7,0,0,0-1.69,9.1,8.48,8.48,0,0,0,6.56,2.95,18.35,18.35,0,0,0,11.86-3.94,8,8,0,0,0,2.71-3.28,7.44,7.44,0,0,1,5.64-4.84c.78-.19,1-.2.88.66a25,25,0,0,0-.35,3,9.85,9.85,0,0,0,1.49,6.21,2.65,2.65,0,0,0,2.66,1.29,2.73,2.73,0,0,0,2.23-2c.2-.57.44-1.13.67-1.69,3.22-8,8.54-14.55,14-21a3.58,3.58,0,0,1,.26-.29.51.51,0,0,1,.7-.1c.28.18.25.42.12.68s-.32.61-.49.92a60.12,60.12,0,0,0-5.28,11.43,14,14,0,0,0-.67,6.41c.55,3.27,3.13,6.24,6,6.88,2.63.59,5.55-.87,7.53-3.84,1.42-2.12,2.78-4.29,4.18-6.43.19-.3.31-.7.79-.86,0,.71,0,1.34,0,2a8,8,0,0,0,3,6.62,5.65,5.65,0,0,0,7.08.77,16,16,0,0,0,4.32-3.71c1.18-1.32,2.26-2.72,3.45-4.17.13.32.23.54.3.77,1.91,5.74,5.59,8.65,11.61,8.9,4.4.18,8.48-1.12,10.31-5.35a10.84,10.84,0,0,1,6-6.19,22.75,22.75,0,0,0,3.43-2.34,34.11,34.11,0,0,0-.55,6.25,7.8,7.8,0,0,0,5.19,6.52,1.87,1.87,0,0,0,2.61-1.39,20.16,20.16,0,0,0,.67-2.65,40.21,40.21,0,0,1,9.27-18.79,43.84,43.84,0,0,1,4.33-4.5c.45-.41,1-.86,1.61-.42s.05,1-.17,1.44c-1.54,3.11-3.16,6.18-4.68,9.29a27.44,27.44,0,0,0-2.67,10.4c-.2,3.22.93,5.83,3.91,7.32s5.28.18,7.46-1.71a34.46,34.46,0,0,0,5.26-5.92A128.78,128.78,0,0,0,375,318.77a5.92,5.92,0,0,0,.78-2.46C375.8,315.66,375.78,314.82,375.23,314.53ZM271.48,291.76a44.43,44.43,0,0,1,4-7.1,5.88,5.88,0,0,1,3.25-2.46c.76-.2,1.15,0,1.19.83a12.63,12.63,0,0,1-1.12,5.55,52.26,52.26,0,0,1-7,11.22c-2.11,2.76-4.38,5.38-6.71,7.94-.28.3-.49.73-1.15.67C266.28,302.69,269,297.26,271.48,291.76ZM237.93,329.9a4.24,4.24,0,0,1-2.09,3.41,8.31,8.31,0,0,1-7.1,1.06,2.57,2.57,0,0,1-.16-5,14.39,14.39,0,0,1,5.36-.67c1.15,0,2,.06,2.88,0S238,329.06,237.93,329.9Zm79.29,5.17a4,4,0,0,1-2.82-1.13c-2.28-2.15-3.36-7.05-2.2-9.93.22-.57.45-.49.82-.18a27.75,27.75,0,0,0,9,5.1c.56.18.55.57.54,1A5.79,5.79,0,0,1,317.22,335.07Zm7.85-11.92c-.06.7-.36,1-1.06,1-4.12.26-8.73-3.84-9-8a3.35,3.35,0,0,1,.8-2.41,3.64,3.64,0,0,0,.93-3.58,1.41,1.41,0,0,1,1-1.82,4.21,4.21,0,0,1,5.39,1.52c1.9,2.66,2.31,5.72,2.28,8.83C325.34,320.22,325.17,321.68,325.07,323.15Z"/><path class="cls-1" d="M192.47,278.21c-3.18-.82-6.29-.29-9.42.16a86.82,86.82,0,0,0-18.27,5c-3.26,1.22-5.47.72-8.08-1.53a29.8,29.8,0,0,0-19.09-7.23c-3.78-.11-7.46.44-10.61,2.78a7,7,0,0,0-.56,11.13,14.93,14.93,0,0,0,4.72,2.94,31.66,31.66,0,0,0,12.64,1.9,76.4,76.4,0,0,0,12.6-1.83c.95-.19,1.39,0,1.67,1,.6,2.14.38,4.3.45,6.46a47.18,47.18,0,0,1-1.1,11.24,2.21,2.21,0,0,1-1.6,1.92c-1.72.58-3.38,1.34-5.08,2A45.26,45.26,0,0,0,131.56,328c-2.89,3.59-5.33,7.39-6.25,12-1.59,7.92,3,14.82,10.63,15.94,4.56.67,8.44-1,11.84-3.91,4.91-4.26,8.26-9.65,11-15.44a96.74,96.74,0,0,0,6.73-19.5,2.19,2.19,0,0,1,2-1.91,22.38,22.38,0,0,1,7.12-.14c2.32.32,4.64.57,7,.81.67.07,1.55.26,1.84-.53s-.25-1.5-.89-2a6.65,6.65,0,0,0-1.34-.79,19.41,19.41,0,0,0-4.23-1.25,67.55,67.55,0,0,0-8.4-.87c-1.27-.08-1.63-.5-1.6-1.8.16-6.22-.05-12.41-2.18-18.36-.23-.64,0-.84.57-1,2.41-.86,4.8-1.78,7.22-2.6a26.71,26.71,0,0,1,13.43-1.42,22.12,22.12,0,0,1,6.52,2.52,20.23,20.23,0,0,0,5.07,2.32c2.2.46,3.12-.32,3.07-2.54C200.66,283.22,197.2,279.42,192.47,278.21ZM154.6,321.14a4,4,0,0,1-.11.5c-2.65,7.71-5.4,15.38-10,22.19a24.39,24.39,0,0,1-4.12,4.83,9.31,9.31,0,0,1-2.16,1.43c-4.44,2.08-8.75-1-8.36-6.27a7.35,7.35,0,0,1,1.06-3.71c4.88-9.6,12-16.66,22.44-20C154.72,319.63,154.82,319.7,154.6,321.14Z"/><path class="cls-1" d="M225.47,315.63c-.61-.2-.73.48-1,.84-1.77,2.73-3.54,5.46-5.27,8.21a36.39,36.39,0,0,1-4.63,6.27,10.27,10.27,0,0,1-3.09,2.34c-1.17.53-1.84.12-2-1.15a6.53,6.53,0,0,1,.19-2.2,66.29,66.29,0,0,1,3.78-11.73c1.35-2.91,2.52-5.9,4.09-8.7a2.66,2.66,0,0,0-.24-3.37,4.25,4.25,0,0,0-6-.5,10.81,10.81,0,0,0-1.09.92A1.8,1.8,0,0,1,208,307a13.24,13.24,0,0,0-12.36.9,25.16,25.16,0,0,0-12,19.11c0,4.49,1.15,7.78,4.3,10.14a5.63,5.63,0,0,0,4.67,1,16.61,16.61,0,0,0,6.22-3.13c.92-.64,1.86-1.79,2.76-1.77s1.54,1.5,2.23,2.37a5.66,5.66,0,0,0,5.75,2.19c3-.51,5.27-2.35,7.3-4.46,4.26-4.41,6.9-9.83,9.42-15.32a2.2,2.2,0,0,0,.19-1.13A1.51,1.51,0,0,0,225.47,315.63Zm-18.53-4.08c-1.37,3.37-2.94,6.66-4.09,10.12a11.81,11.81,0,0,0-.8,2.73c-.19,2.48-1.68,4.08-3.38,5.61a21.78,21.78,0,0,1-3.7,2.63c-1.78,1-3.4.31-3.83-1.73a7.51,7.51,0,0,1-.1-1.12,12.94,12.94,0,0,1,1-4.84,32.61,32.61,0,0,1,10.5-13.47,6.24,6.24,0,0,1,3.3-1.42C207.16,310,207.42,310.36,206.94,311.55Z"/><path class="cls-1" d="M301.51,304.55a4.55,4.55,0,0,1-4-2.58,2.83,2.83,0,0,1,.56-3.36,4.8,4.8,0,0,1,5.08-1.41,7.63,7.63,0,0,1,3.15,2.21c.56.55.37,1.3.2,2C306,303.29,304.06,304.6,301.51,304.55Z"/><path class="cls-2" d="M158,251.54a3.55,3.55,0,0,1,2.39-.36H340.87v.25h-180c-.69,0-1.38.07-2.08.1C158.55,251.58,158.25,251.75,158,251.54Z"/><path class="cls-3" d="M344.6,320.66c0,.23-.23.52-.36.44-.35-.22-.08-.49.06-.74Z"/><path class="cls-4" d="M142.31,288.2a32,32,0,0,1-8.87-1,12.28,12.28,0,0,1-2.29-.91,3.51,3.51,0,0,1-.65-6,7.26,7.26,0,0,1,3.9-1.66c8-1,15.24.81,21.27,6.44.28.26.76.51.69.88s-.69.41-1.08.52A47.81,47.81,0,0,1,142.31,288.2Z"/></svg>