<svg id="Icon_Facebook" xmlns="http://www.w3.org/2000/svg" width="20.991" height="20.985" viewBox="0 0 20.991 20.985">
  <path id="Path_76" data-name="Path 76" d="M18.161,0H2.83A2.826,2.826,0,0,0,0,2.83V18.161a2.825,2.825,0,0,0,2.83,2.824h7.56l.013-7.5H8.452a.467.467,0,0,1-.462-.456l-.006-2.419a.46.46,0,0,1,.462-.462H10.39V7.81a3.816,3.816,0,0,1,4.075-4.184h1.983a.46.46,0,0,1,.462.462V6.129a.46.46,0,0,1-.462.462H15.228c-1.316,0-1.572.622-1.572,1.54v2.021h2.888a.457.457,0,0,1,.456.513l-.289,2.419a.458.458,0,0,1-.456.4H13.663v7.5h4.5a2.831,2.831,0,0,0,2.83-2.83V2.83A2.835,2.835,0,0,0,18.161,0Zm0,0" fill="#475993"/>
</svg>
