<svg id="icons8_Google_2" xmlns="http://www.w3.org/2000/svg" width="20.991" height="20.991" viewBox="0 0 20.991 20.991">
  <path id="Path_72" data-name="Path 72" d="M24.786,12.44h-.845V12.4H14.5v4.2h5.932a6.3,6.3,0,1,1-1.755-6.8l2.968-2.968a10.471,10.471,0,1,0,3.145,5.615Z" transform="translate(-4 -4)" fill="#ffc107"/>
  <path id="Path_73" data-name="Path 73" d="M6.3,9.611l3.45,2.53A6.283,6.283,0,0,1,19.769,9.793l2.968-2.968A10.475,10.475,0,0,0,6.3,9.611Z" transform="translate(-5.095 -4)" fill="#ff3d00"/>
  <path id="Path_74" data-name="Path 74" d="M15.539,36.423A10.452,10.452,0,0,0,22.576,33.7l-3.249-2.749a6.28,6.28,0,0,1-9.708-2.894L6.2,30.691A10.487,10.487,0,0,0,15.539,36.423Z" transform="translate(-5.043 -15.431)" fill="#4caf50"/>
  <path id="Path_75" data-name="Path 75" d="M34.291,20.043h-.845V20H24v4.2h5.932a6.326,6.326,0,0,1-2.146,2.923h0l3.249,2.749A10.16,10.16,0,0,0,34.5,22.1,10.471,10.471,0,0,0,34.291,20.043Z" transform="translate(-13.504 -11.604)" fill="#1976d2"/>
</svg>
